<svg width="318" height="403" viewBox="0 0 318 403" fill="none" xmlns="http://www.w3.org/2000/svg">
<path d="M183.5 3.5V74.0002C203 70.5002 246.866 94.886 243.5 150.5C240.133 206.115 192.5 219.5 192.5 219.5C192.5 219.5 75.5458 216.288 76.9998 220L87 231.5L91.5 233L230 402.5L318 403L220 286C297.674 253.726 313.529 215.043 313.5 125C303.944 53.9846 265.529 22.9963 197.5 3.5H183.5Z" fill="#3A6400"/>
<path d="M8.5 299.5V319.5H9.5L87.5 232L77 220.5L8.5 299.5Z" fill="#403E3F"/>
<path d="M8.56823 277.636C8.52336 277.547 8.5 277.448 8.5 277.347V9.5C8.5 6.73858 10.7386 4.5 13.5 4.5H75.5C78.2614 4.5 80.5 6.73858 80.5 9.5V44.5423C80.5 45.0712 80.9288 45.5 81.4577 45.5V45.5C81.7942 45.5 82.1059 45.3235 82.279 45.035L83.1144 43.6426C83.3691 43.2182 83.7036 42.8473 84.0995 42.5504L84.5557 42.2082C85.1767 41.7425 85.6807 41.1385 86.0279 40.4443L86.7631 38.9738C86.9206 38.6588 87.1109 38.3614 87.3309 38.0864L89 36L90.5 34L92.5 31.5L94.5 29.5L96.1529 27.4338C96.3836 27.1455 96.6455 26.8836 96.9338 26.6529L99 25L102 22L104.662 19.7818C104.887 19.5943 105.128 19.4269 105.382 19.2816L108.5 17.5L111.5 15.5L115 13.5L119.481 10.3631C119.826 10.122 120.199 9.92529 120.593 9.77765L124 8.5L127 7L131.239 5.30445C131.743 5.10283 132.276 4.98464 132.818 4.95453L141 4.5H159.793C160.246 4.5 160.68 4.67986 161 5V5C161.32 5.32014 161.5 5.75435 161.5 6.20711V66.1037C161.5 68.6178 159.633 70.7409 157.14 71.0626L130.854 74.4543C130.618 74.4847 130.385 74.5319 130.156 74.5956L113.064 79.3432C112.689 79.4474 112.328 79.595 111.987 79.7829L98.7691 87.0757C98.2603 87.3564 97.8043 87.7237 97.4216 88.161L87.815 99.14C87.6055 99.3795 87.4193 99.6384 87.259 99.9132L81.1649 110.36C80.7291 111.107 80.4946 111.955 80.4842 112.82L79.5 195V195.629C79.5 196.835 79.0637 198.001 78.2715 198.911L9.63385 277.772C9.33176 278.119 8.77401 278.048 8.56823 277.636V277.636Z" fill="#02267A"/>
<g filter="url(#filter0_f_0_1)">
<line x1="21.1067" y1="166.987" x2="64.1067" y2="213.987" stroke="#1B4A9C" stroke-width="3"/>
</g>
<g filter="url(#filter1_f_0_1)">
<line x1="9.10221" y1="22.9826" x2="81.1022" y2="100.983" stroke="white" stroke-opacity="0.49" stroke-width="3"/>
</g>
<g filter="url(#filter2_f_0_1)">
<line x1="139.732" y1="5.68142" x2="58.7319" y2="92.6814" stroke="white" stroke-opacity="0.5" stroke-width="2"/>
</g>
<g filter="url(#filter3_f_0_1)">
<line x1="22.6038" y1="5.4449" x2="8.60379" y2="24.4449" stroke="white" stroke-opacity="0.47" stroke-width="1.5"/>
</g>
<g filter="url(#filter4_f_0_1)">
<line x1="16.7071" y1="290.293" x2="26.7071" y2="300.293" stroke="#5C5C5C" stroke-width="2"/>
</g>
<g filter="url(#filter5_f_0_1)">
<line x1="74.7372" y1="223.324" x2="85.7372" y2="235.324" stroke="#5C5C5C" stroke-width="2"/>
</g>
<rect x="60" y="319" width="26" height="27" rx="3" fill="#02A9FA"/>
<rect x="100" y="319" width="26" height="27" rx="3" fill="#242DE0"/>
<rect x="60" y="360" width="26" height="27" rx="3" fill="#32FFFE"/>
<rect x="100" y="360" width="26" height="27" rx="3" fill="#01277A"/>
<defs>
<filter id="filter0_f_0_1" x="16" y="161.975" width="53.2134" height="57.025" filterUnits="userSpaceOnUse" color-interpolation-filters="sRGB">
<feFlood flood-opacity="0" result="BackgroundImageFix"/>
<feBlend mode="normal" in="SourceGraphic" in2="BackgroundImageFix" result="shape"/>
<feGaussianBlur stdDeviation="2" result="effect1_foregroundBlur_0_1"/>
</filter>
<filter id="filter1_f_0_1" x="0.3" y="14.2651" width="89.6044" height="95.4349" filterUnits="userSpaceOnUse" color-interpolation-filters="sRGB">
<feFlood flood-opacity="0" result="BackgroundImageFix"/>
<feBlend mode="normal" in="SourceGraphic" in2="BackgroundImageFix" result="shape"/>
<feGaussianBlur stdDeviation="3.85" result="effect1_foregroundBlur_0_1"/>
</filter>
<filter id="filter2_f_0_1" x="53.7" y="0.7" width="91.0638" height="96.9628" filterUnits="userSpaceOnUse" color-interpolation-filters="sRGB">
<feFlood flood-opacity="0" result="BackgroundImageFix"/>
<feBlend mode="normal" in="SourceGraphic" in2="BackgroundImageFix" result="shape"/>
<feGaussianBlur stdDeviation="2.15" result="effect1_foregroundBlur_0_1"/>
</filter>
<filter id="filter3_f_0_1" x="4" y="1" width="23.2076" height="27.8898" filterUnits="userSpaceOnUse" color-interpolation-filters="sRGB">
<feFlood flood-opacity="0" result="BackgroundImageFix"/>
<feBlend mode="normal" in="SourceGraphic" in2="BackgroundImageFix" result="shape"/>
<feGaussianBlur stdDeviation="2" result="effect1_foregroundBlur_0_1"/>
</filter>
<filter id="filter4_f_0_1" x="12" y="285.586" width="19.4142" height="19.4142" filterUnits="userSpaceOnUse" color-interpolation-filters="sRGB">
<feFlood flood-opacity="0" result="BackgroundImageFix"/>
<feBlend mode="normal" in="SourceGraphic" in2="BackgroundImageFix" result="shape"/>
<feGaussianBlur stdDeviation="2" result="effect1_foregroundBlur_0_1"/>
</filter>
<filter id="filter5_f_0_1" x="70" y="218.649" width="20.4743" height="21.3515" filterUnits="userSpaceOnUse" color-interpolation-filters="sRGB">
<feFlood flood-opacity="0" result="BackgroundImageFix"/>
<feBlend mode="normal" in="SourceGraphic" in2="BackgroundImageFix" result="shape"/>
<feGaussianBlur stdDeviation="2" result="effect1_foregroundBlur_0_1"/>
</filter>
</defs>
</svg>
